<?xml version="1.0" standalone="no"?>
<!DOCTYPE svg PUBLIC "-//W3C//DTD SVG 20010904//EN"
 "http://www.w3.org/TR/2001/REC-SVG-20010904/DTD/svg10.dtd">
<svg version="1.0" xmlns="http://www.w3.org/2000/svg"
 width="366.000000pt" height="395.000000pt" viewBox="0 0 366.000000 395.000000"
 preserveAspectRatio="xMidYMid meet">

<g transform="translate(0.000000,395.000000) scale(0.100000,-0.100000)"
fill="#000000" stroke="none">
<path d="M1531 3624 c-67 -24 -116 -59 -160 -114 -56 -70 -74 -133 -69 -234 7
-137 74 -237 198 -295 46 -22 69 -26 140 -26 72 0 93 4 140 27 122 60 192 166
198 300 5 91 -12 151 -63 220 -85 115 -251 168 -384 122z"/>
<path d="M2529 3351 c-13 -10 -51 -62 -84 -116 -143 -231 -349 -390 -597 -457
-72 -20 -107 -23 -258 -23 -151 0 -187 4 -264 24 -202 53 -357 141 -534 303
-58 54 -66 58 -111 58 -81 0 -131 -59 -116 -137 5 -30 25 -56 95 -124 140
-137 330 -254 511 -312 159 -52 230 -62 439 -61 176 0 204 3 290 26 52 14 126
40 164 57 38 17 70 31 72 31 2 0 4 -254 4 -565 0 -311 -4 -565 -8 -565 -5 0
-31 7 -58 16 -76 24 -284 30 -362 10 -126 -32 -233 -96 -325 -195 -109 -119
-167 -256 -167 -399 0 -222 119 -394 321 -462 50 -17 88 -22 169 -23 186 0
312 54 451 193 100 99 154 196 188 329 21 83 21 103 21 944 l0 860 93 96 c99
102 181 211 227 301 44 88 43 129 -4 176 -30 30 -41 34 -84 34 -33 0 -57 -6
-73 -19z"/>
</g>
</svg>
